{"title":"Mary.Queen.of.Scots.2013.DVDRip.XviD.HORiZON-ArtSubs","uid":11390267,"size":1576140812,"categoryP":"video","categoryS":"movies","magnet":"?xt=urn:btih:7290437f25e2719f4acc3478ab9dc91809f5e69e&amp;dn=Mary.Queen.of.Scots.2013.DVDRip.XviD.HORiZON-ArtSubs&amp;tr=udp%3A%2F%2Ftracker.openbittorrent.com%3A80&amp;tr=udp%3A%2F%2Fopen.demonii.com%3A1337&amp;tr=udp%3A%2F%2Ftracker.coppersurfer.tk%3A6969&amp;tr=udp%3A%2F%2Fexodus.desync.com%3A6969","seeders":6,"leechers":1,"uploader":"lletaif","files":-1,"time":1415317476,"description":"Title:\nMary Queen of Scots\n\n\nCountry:\nSwitzerland, 2013\n\n\nLanguage:\nFrench/English\n\n\nSubtitle:\nEnglish/German\n\n\n\nPlot:\nA queen who lost three kingdoms. A wife who lost three husbands. A woman who lost her head.\n\n\n\nTrivia:\nOfficial Selection Sao Paulo International Film 2014\nOfficial Selection Locarno Film Festival 2013\n\n \n\n\nMedia Info:\n\nGeneral\nComplete name                            : Mary.Queen.of.Scots.2013.DVDRip.XviD.HORiZON-ArtSubs.avi\nFormat                                   : AVI\nFormat/Info                              : Audio Video Interleave\nFile size                                : 1.46 GiB\nDuration                                 : 1h 54mn\nOverall bit rate                         : 1 822 Kbps\n\nVideo\nID                                       : 0\nFormat                                   : MPEG-4 Visual\nFormat profile                           : Advanced Simple@L5\nFormat settings, BVOP                    : 1\nFormat settings, QPel                    : No\nFormat settings, GMC                     : No warppoints\nFormat settings, Matrix                  : Default (MPEG)\nCodec ID                                 : XVID\nCodec ID/Hint                            : XviD\nDuration                                 : 1h 54mn\nBit rate                                 : 1 364 Kbps\nWidth                                    : 720 pixels\nHeight                                   : 384 pixels\nDisplay aspect ratio                     : 1.85:1\nFrame rate                               : 25.000 fps\nColor space                              : YUV\nChroma subsampling                       : 4:2:0\nBit depth                                : 8 bits\nScan type                                : Progressive\nCompression mode                         : Lossy\nBits/(Pixel*Frame)                       : 0.197\nStream size                              : 1.09 GiB (75%)\nWriting library                          : XviD 1.2.1 (UTC 2008-12-04)\n\nAudio\nID                                       : 1\nFormat                                   : AC-3\nFormat/Info                              : Audio Coding 3\nMode extension                           : CM (complete main)\nFormat settings, Endianness              : Big\nCodec ID                                 : 2000\nDuration                                 : 1h 54mn\nBit rate mode                            : Constant\nBit rate                                 : 448 Kbps\nChannel(s)                               : 6 channels\nChannel positions                        : Front: L C R, Side: L R, LFE\nSampling rate                            : 48.0 KHz\nBit depth                                : 16 bits\nCompression mode                         : Lossy\nStream size                              : 368 MiB (25%)\nAlignment                                : Split accross interleaves\nInterleave, duration                     : 40 ms (1.00 video frame)\nInterleave, preload duration             : 500 ms","torrent":{"xt":"urn:btih:7290437f25e2719f4acc3478ab9dc91809f5e69e","amp;dn":"Mary.Queen.of.Scots.2013.DVDRip.XviD.HORiZON-ArtSubs","amp;tr":["udp%3A%2F%2Ftracker.openbittorrent.com%3A80","udp%3A%2F%2Fopen.demonii.com%3A1337","udp%3A%2F%2Ftracker.coppersurfer.tk%3A6969","udp%3A%2F%2Fexodus.desync.com%3A6969"],"infoHash":"7290437f25e2719f4acc3478ab9dc91809f5e69e","infoHashBuffer":{"type":"Buffer","data":[114,144,67,127,37,226,113,159,74,204,52,120,171,157,201,24,9,245,230,158]},"announce":[],"urlList":[]}}